<?xml version="1.0" standalone="no"?>
<!DOCTYPE svg PUBLIC "-//W3C//DTD SVG 20010904//EN"
 "http://www.w3.org/TR/2001/REC-SVG-20010904/DTD/svg10.dtd">
<svg version="1.0" xmlns="http://www.w3.org/2000/svg"
 width="96.000000pt" height="96.000000pt" viewBox="0 0 96.000000 96.000000"
 preserveAspectRatio="xMidYMid meet">
<metadata>
Created by potrace 1.14, written by Peter Selinger 2001-2017
</metadata>
<g transform="translate(0.000000,96.000000) scale(0.100000,-0.100000)"
fill="#000000" stroke="none">
<path d="M382 855 c-65 -30 -144 -110 -195 -196 -52 -88 -97 -234 -104 -336
l-6 -83 41 0 c40 0 41 1 46 38 30 204 80 334 162 422 79 85 134 104 247 86 43
-7 47 -10 47 -35 0 -18 10 -37 29 -53 18 -17 37 -51 51 -95 13 -37 36 -97 51
-132 34 -74 34 -77 13 -85 -10 -4 -28 4 -46 19 -42 35 -93 60 -155 75 -29 6
-56 17 -61 23 -19 24 -21 62 -6 94 15 30 15 34 -5 62 -28 39 -44 32 -76 -32
-38 -77 -35 -151 15 -316 22 -73 40 -145 40 -159 0 -60 9 -72 53 -72 l40 0 -6
68 c-4 54 -35 174 -64 248 -3 10 9 9 53 -3 53 -13 93 -36 165 -94 l26 -21 52
22 c54 24 91 60 91 90 0 10 -20 60 -44 111 -24 52 -49 115 -56 141 l-12 46 57
92 c31 51 55 94 52 96 -2 2 -39 -21 -83 -51 l-79 -55 -3 53 -3 53 -137 2
c-127 1 -141 0 -190 -23z"/>
<path d="M603 643 c-18 -7 -16 -38 3 -53 12 -11 18 -10 32 4 25 25 -2 63 -35
49z"/>
</g>
</svg>
